<?xml version="1.0" encoding="utf-8"?>
<!-- Generator: Adobe Illustrator 19.0.0, SVG Export Plug-In . SVG Version: 6.00 Build 0)  -->
<svg version="1.1" id="mola_x5F_capa" xmlns="http://www.w3.org/2000/svg" xmlns:xlink="http://www.w3.org/1999/xlink" x="0px"
	 y="0px" viewBox="0 0 412.8 457" style="enable-background:new 0 0 412.8 457;" xml:space="preserve">
<style type="text/css">
	.st0{fill:#003D39;}
</style>
<g id="XMLID_4002_">
	<path id="XMLID_4009_" class="st0" d="M131.1,194.7C58.8,194.7,0,253.5,0,325.8C0,398.2,58.8,457,131.1,457
		c57.2,0,105.9-36.8,123.8-87.9c8.9,0.4,17,0.5,23.6,0.5c40.3,0,133.9-4.3,133.9-43.7c0-0.1,0-0.2,0-0.4c0-0.1,0-0.2,0-0.3v-50.4
		v-2.3c0.2-1.2,0.4-2.4,0.4-3.6c0-1.2-0.2-2.3-0.4-3.4v-43.3c0.2-1.2,0.4-2.4,0.4-3.6c0-1.2-0.2-2.3-0.4-3.4v-48.3
		c0.2-1.2,0.4-2.4,0.4-3.6c0-2.1-0.4-4-1.1-5.9c0.4-1.7,0.7-3.5,0.7-5.4c0-0.1,0-0.2,0-0.4c0-0.1,0-0.2,0-0.3V98.6
		c0.2-1.2,0.4-2.4,0.4-3.6c0-1.2-0.2-2.3-0.4-3.4V43.3c0.2-1.2,0.4-2.4,0.4-3.6c0-2.1-0.4-4.2-1.1-6.1c-1.2-4-3.7-7.4-7.1-9.6
		C377.3,0.8,290.1,0,278.5,0C267,0,179.8,0.8,152.4,24c-3.4,2.1-5.9,5.5-7.1,9.5c-0.7,1.9-1.1,4-1.1,6.1c0,1.2,0.1,2.5,0.4,3.6v48.3
		c-0.2,1.1-0.4,2.2-0.4,3.4c0,1.3,0.1,2.5,0.4,3.6v52.7c0,0.1,0,0.2,0,0.3c0,0.1,0,0.2,0,0.3c0,1.9,0.3,3.7,0.7,5.4
		c-0.7,1.9-1.1,3.8-1.1,5.9c0,1.2,0.1,2.4,0.4,3.6v28.6C140.2,194.9,135.7,194.7,131.1,194.7z M397.2,324.8c0,0.3,0,0.7,0,1
		c0,0.1,0,0.3,0,0.4c-0.8,14.7-53.7,26.6-118.6,26.6c-6.5,0-12.7-0.1-18.9-0.4c1.8-8.6,2.7-17.4,2.7-26.5c0-2.3-0.1-4.6-0.2-6.9
		c6,0.2,11.6,0.2,16.4,0.2c30.2,0,90.4-2.4,118.6-20.2V324.8z M397.2,274.4c0,0.3,0,0.7,0,1c0,0.1,0,0.3,0,0.4
		c-0.8,14.7-53.7,26.6-118.6,26.6c-6.3,0-12.4-0.1-18.4-0.4c-2.6-13.9-7.3-27-13.9-39.1c12.3,0.7,23.6,0.9,32.3,0.9
		c30.2,0,90.4-2.4,118.6-20.2V274.4z M397.2,150.8c0,0.3,0,0.7,0,0.9c0,0.1,0,0.3,0,0.4c-0.8,14.7-53.7,26.6-118.6,26.6
		c-65,0-117.9-11.9-118.6-26.6c0-0.3,0-0.6,0-0.8c0-0.2,0-0.4,0-0.6l0-30.7c28.2,17.9,88.5,20.2,118.7,20.2
		c30.2,0,90.4-2.4,118.6-20.2V150.8z M278.5,19.4c67.4,0,109.1,12.5,116.1,20.3c-7,7.8-48.8,20.3-116.1,20.3
		c-67.4,0-109.1-12.5-116.1-20.3C169.4,31.9,211.2,19.4,278.5,19.4z M278.5,79.3c10.7,0,85.6-0.7,118.6-19v35.2c0,0.3,0,0.7,0,1
		c0,0.1,0,0.3,0,0.4c-0.8,14.7-53.7,26.6-118.6,26.6c-65,0-117.9-11.9-118.6-26.6c0-0.3,0-0.6,0-0.8c0-0.2,0-0.4,0-0.6l0-35.2
		C192.9,78.6,267.9,79.3,278.5,79.3z M278.5,202.9c10.7,0,85.6-0.7,118.6-19v35.2c0,0.3,0,0.7,0,1c0,0.1,0,0.3,0,0.4
		c-0.8,14.7-53.7,26.6-118.6,26.6c-15.6,0-30.5-0.7-44.1-1.9c-18.4-23.5-44.5-40.5-74.6-47.3l0-14
		C192.9,202.2,267.9,202.9,278.5,202.9z M245.5,325.8c0,63.1-51.3,114.4-114.4,114.4c-63,0-114.3-51.3-114.3-114.4
		c0-63,51.3-114.3,114.3-114.3C194.2,211.5,245.5,262.8,245.5,325.8z"/>
	<path id="XMLID_4006_" class="st0" d="M42.8,325.8c0,48.7,39.6,88.4,88.4,88.4c48.7,0,88.4-39.6,88.4-88.4
		c0-48.7-39.6-88.4-88.4-88.4C82.4,237.5,42.8,277.1,42.8,325.8z M208.3,325.8c0,42.6-34.6,77.2-77.2,77.2
		C88.6,403,54,368.4,54,325.8c0-42.5,34.6-77.2,77.2-77.2C173.7,248.7,208.3,283.3,208.3,325.8z"/>
	<path id="XMLID_4003_" class="st0" d="M120.3,270.1v9.5c-4.6,1.7-8.6,4.4-11.8,7.8c-4.9,5.2-7.7,12.2-7.6,19.6
		c0,3.9,0.7,7.6,2.2,11c2,4.6,5.4,8.6,10.2,12c3.7,2.6,8.2,5,14.3,7.4c5,2,7.1,3.7,7.9,4.5c0.6,0.6,0.8,1,0.9,1.3
		c0.1,0.3,0.2,0.7,0.2,1.4c0,1.1-0.3,1.8-1.1,2.4c-1.2,1-3.2,1.5-5.5,1.5c-5.6,0.3-10.7-2.1-13.7-4.1l-3.3-2.2
		c-1.4-1-3.2-1.2-4.9-0.7c-1.6,0.5-2.9,1.8-3.5,3.4l-5.2,14.6c-0.9,2.4,0,5,2,6.4l1.9,1.4c3.1,2.2,6.9,4,11.3,5.2
		c1.5,0.5,3.1,0.8,4.7,1.1v8.3c0,3.1,2.5,5.6,5.6,5.6h14.3c3.1,0,5.6-2.5,5.6-5.6v-9.8c5.2-1.9,9.6-5,13-8.9
		c4.7-5.4,7.3-12.4,7.3-19.7c0-3.8-0.6-7.5-1.8-10.7c-1.8-4.9-4.9-9.2-9.2-12.8c-3.7-3-8.1-5.6-14.1-8c-0.2-0.1-0.4-0.2-0.6-0.2
		c-6-2.5-8.5-4.1-9.5-5c-0.4-0.3-0.6-0.6-0.7-0.8c0-0.1-0.1-0.3-0.1-0.7c0-0.4,0.1-0.8,0.5-1.2c0.8-0.7,2.3-1.1,4.5-1.1
		c2.7,0,5.1,0.4,7.4,1.2c1.9,0.6,3.3,1.4,4.5,2.1l3.1,1.8c1.4,0.8,3.1,1,4.7,0.4c1.5-0.6,2.8-1.8,3.4-3.3l5.4-14.4
		c1-2.6-0.1-5.4-2.4-6.8l-2.3-1.3c-3.8-2.2-7.9-3.8-12.4-4.7v-7.9c0-3.1-2.5-5.6-5.6-5.6h-14.2C122.8,264.5,120.3,267,120.3,270.1z
		 M131.5,283.7v-8h3v7.1c0,2.9,2.2,5.3,5.1,5.6c4.1,0.4,7.8,1.4,11.1,3l-1.4,3.8c-1.1-0.6-2.4-1.1-3.9-1.6c-3.4-1.2-7.1-1.8-11-1.8
		c-5.2,0-9.3,1.5-12.2,4.3c-2.5,2.4-3.9,5.7-3.9,9.3c0,2.1,0.4,3.9,1.1,5.5c0.8,1.6,1.9,3.1,3.4,4.4c2.5,2.2,6.5,4.4,12.9,7l0,0
		c5,2.1,8.7,4.1,11.5,6.4c2.8,2.3,4.7,4.9,5.8,7.9c0.7,2,1.1,4.4,1.1,6.9c0,4.5-1.6,8.9-4.6,12.3c0,0,0,0,0,0
		c-2.8,3.2-6.8,5.5-11.5,6.7c-2.5,0.6-4.3,2.9-4.3,5.4v8.4h-3.1v-7.6c0-2.9-2.2-5.3-5.1-5.6c-2.6-0.2-5.2-0.7-7.6-1.4
		c-2.4-0.7-4.6-1.6-6.4-2.6l1.4-3.9c5.1,2.7,11.3,4.3,17.1,4.3c5.2,0.1,9.5-1.4,12.8-4.2c3.3-2.8,5-6.5,5.1-11c0-2.1-0.4-4-1.1-5.8
		c-0.7-1.7-1.8-3.3-3.3-4.8c-2.6-2.6-6.4-4.9-11.7-7c-5.3-2.1-9.1-4-12-6.1c-3.1-2.2-5.2-4.7-6.4-7.4c-0.8-1.9-1.3-4.1-1.3-6.5
		c0-4.5,1.6-8.8,4.6-11.9c2.6-2.8,6.3-4.8,10.6-5.9C129.8,288.5,131.5,286.3,131.5,283.7z"/>
</g>
</svg>
