<?xml version="1.0" encoding="utf-8"?>
<!-- Generator: Adobe Illustrator 19.0.0, SVG Export Plug-In . SVG Version: 6.00 Build 0)  -->
<svg version="1.1" id="hand_x5F_flower_x5F_capa" xmlns="http://www.w3.org/2000/svg" xmlns:xlink="http://www.w3.org/1999/xlink"
	 x="0px" y="0px" viewBox="0 0 586 418.7" style="enable-background:new 0 0 586 418.7;" xml:space="preserve">
<style type="text/css">
	.st0{fill:none;}
	.st1{fill:#F1F2EF;}
</style>
<g id="hand_x5F_flower">
	<ellipse id="XMLID_492_" class="st0" cx="343.7" cy="137.2" rx="170.4" ry="137.2"/>
	<path id="XMLID_491_" class="st0" d="M343.5,220.7l-34.5-20.5c-48.3-28.8-48-87,0.5-115.5l29.4-17.3c2.3-1.4,5.6-0.4,6.3,1.8
		c3.2,10.5,2.5,21.4-1.6,32.7l16.7,24.8L343.5,220.7z"/>
	<path id="XMLID_490_" class="st0" d="M246.1,294.1l78.1-34.5c49.4-21.8,110.6-16.4,152.9,13.7l31.9,22.6v26L273,380.5l-26.9-57.3
		V294.1z"/>
	<g id="XMLID_488_">
		<path id="XMLID_489_" class="st0" d="M572.4,298.3c-5.6-9.8-19.6-14.6-32.3-11l-175.9,49.8l0.1-0.1c5.6-4.5,9.1-10.8,9.1-17.7
			c0-8.8-5.6-16.4-14-20.9c-4.9-2.6-10.8-4.1-17.1-4.1h-82.7h-24.3c-10.6-8.5-24.9-13.3-39.9-13.3h-144v111.8l58.3-1.2l5.1,3.5
			c15.7,10.9,35.7,16.8,56.4,16.8H333c13.8,0,27.5-2.7,39.7-7.8l187.9-78.4c8.9-3.7,14.1-11,14.1-18.7
			C574.8,304.1,574,301.1,572.4,298.3L572.4,298.3z"/>
	</g>
	<path id="XMLID_487_" class="st0" d="M252.8,344.1h89.4c17.2,0,31.1-11.2,31.1-25c0-13.8-13.9-25-31.1-25H235.2h-6.3l6.3,50.1
		L252.8,344.1L252.8,344.1z"/>
	<path id="XMLID_486_" class="st0" d="M342.2,324.5h-89.4c-9.7,0-17.6,6.3-17.6,14.2v3.8c0,0.9,0.9,1.7,2.1,1.7h15.5h89.4
		c17.2,0,31.1-11.2,31.1-25c0-3.5-0.9-6.8-2.5-9.8C366.1,318.2,355.1,324.5,342.2,324.5L342.2,324.5z"/>
	<g id="XMLID_484_">
		<path id="XMLID_485_" class="st0" d="M81.5,283.6v106.1c0,0.6-0.1,1.2-0.2,1.8c-1.1,6.1-7.6,10.8-15.4,10.8H8.1
			c-4.5,0-8.1-2.9-8.1-6.5V277.6c0-3.6,3.6-6.5,8.1-6.5H66c7.5,0,13.7,4.2,15.2,9.9C81.4,281.8,81.5,282.7,81.5,283.6L81.5,283.6z"
			/>
	</g>
	<path id="XMLID_480_" class="st1" d="M78.3,273.5c-5.1,1.3-3,6.5-3,9.6v20.5c0,3.9,3.9,7,8.7,7s8.7-3.1,8.7-7v-3.9v-12.3h105.2
		c12.7,0,24.7,4,33.7,11.2c1.6,1.3,3.8,2,6.1,2h107.1c12.4,0,22.4,8.1,22.4,18.1c0,10-10.1,18.1-22.4,18.1H258
		c-4,0-7.8,1.3-10.6,3.5l-14.9,12c-3.4,2.7-3.4,7.1,0,9.9c1.7,1.4,3.9,2,6.1,2s4.4-0.7,6.1-2l14.2-11.5h85.8
		c10.1,0,19.4-3.1,26.4-8.1l174.2-49.3c8.5-2.4,17.8,0.7,21.6,7.3c3.9,6.8,0.5,14.9-7.8,18.3l-187.9,78.4c-11,4.6-23.4,7-35.8,7
		h-15.2c-4.8,0-8.7,3.1-8.7,7s3.9,7,8.7,7h15.2c15.2,0,30.3-3,43.7-8.6l187.9-78.4c16.6-6.9,23.4-23,15.6-36.6l0,0
		c-7.6-13.2-26.1-19.5-43.1-14.7l0,0l-53.1-20.1c-40.2-13.8-86.5-26.9-131.7-17.3v-19.6l51.6-42.9c2.9-2.4,5.7-5,8.4-7.7
		c3-3-10.6-11.7-13.6-8.7c-2.3,2.4-4.8,4.6-7.3,6.7L350,207.1l-19.3-49.3c-5.9-15.1-1.2-31.7,12.2-43.2l31.2-26.8
		c3.7-6.1,4.3-9.1,5.9-11.2L402,27.1c3.7-1.8,4.9,12.9,6.1,15c0.4,0,6.5,9,6.6,9c24.3,25.3,17.9,58,3.9,88
		c-1.7,3.6,14.6,8.5,16.2,4.9c16.1-34.5,16.1-76.3-11.9-105.5c-3.7-3.9-13.5-35.1-21.8-32.7c-8.6-2.6-20.9,34.1-23.9,38.4L364,66.8
		c-1.3,1.9-2.8,8.2-4.6,9.8l-1,4.3c-0.1-4.6-0.9-9.2-2.2-13.6c-1-3.3-4-6-8-7.2c-4-1.2-8.4-0.7-11.8,1.3L307,78.7
		c-25.4,14.9-40,38-40.1,63.3c-0.1,25.3,14.3,48.4,39.6,63.5l31,18.4v23.6c-5,1.6-10,3.5-14.8,5.7L230,282.9l-1.4-2
		c-11.9-8.6-14.6-7.5-30.7-7.5H89.5 M284.4,142.3c0.1-20.8,12.1-39.8,33-52l23.4-13.7c1,6.9,0.3,14.3-2.3,21.9l-8,6.9
		c-17.7,15.2-23.9,37-16.1,56.9l15.7,40l-13-7.8C296.2,182.2,284.3,163.1,284.4,142.3z M344.9,287.1l-93.7,2.9l79.8-24.3
		c46.1-20.3,114.2-6.6,148.1,5.6l42.3,13.9l-137.3,39.4c0.4-1.8,0.6-3.6,0.6-5.5C384.7,301.4,366.8,287.1,344.9,287.1L344.9,287.1z"
		/>
	<path id="XMLID_479_" class="st1" d="M87.5,398.3h18.9c0,0,0,0,0,0l2.6,1.8c17.3,12,39.3,18.6,62.1,18.6h109.4
		c4.7,0,8.7-2.9,8.9-6.7c0.2-4-3.7-7.3-8.7-7.3v0H171.2c-18.6,0-36.6-5.4-50.8-15.2l-5.1-3.5c-1.6-1.1-3.6-1.7-5.7-1.7H90.1
		c0,0,0,0,0,0l0-50.4c0-3.8-3.6-7-8.3-7.2c-5-0.2-9.1,3-9.1,7v55.8v6.3c0,1.7,1.8,3,3.8,2.9L87.5,398.3
		C87.5,398.3,87.5,398.3,87.5,398.3z"/>
	<polyline id="XMLID_478_" class="st1" points="434.5,144.4 414.4,172.9 400.8,164.2 418.2,139.4 	"/>
	<polyline id="XMLID_477_" class="st1" points="90.1,335.7 72.8,335.7 74.9,297.4 92.3,298.5 	"/>
	<polygon id="XMLID_476_" class="st1" points="258.4,418.7 319.9,418.7 319.9,405.9 255.2,405.9 	"/>
</g>
</svg>
