<?xml version="1.0" encoding="utf-8"?>
<!-- Generator: Adobe Illustrator 19.0.0, SVG Export Plug-In . SVG Version: 6.00 Build 0)  -->
<svg version="1.1" id="hands_x5F_capa" xmlns="http://www.w3.org/2000/svg" xmlns:xlink="http://www.w3.org/1999/xlink" x="0px"
	 y="0px" viewBox="0 0 389.8 334.9" style="enable-background:new 0 0 389.8 334.9;" xml:space="preserve">
<style type="text/css">
	.st0{fill:#F1F2EF;}
</style>
<path id="hands" class="st0" d="M387.9,262l-27.3-23.8c-1.2-1.1-2.9-1.6-4.6-1.6l0,0c-1.7,0-3.4,0.6-4.6,1.7l-4.6,4l-3.3-2.9
	l-8.7-30.1c-0.3-1-0.9-1.9-1.7-2.6L265.8,148V78.4c0-1-0.3-2-0.9-2.9l-18.4-26.7v-4h6.4c3.6,0,6.4-2.5,6.4-5.6V5.6
	c0-3.1-2.9-5.6-6.4-5.6H149.8c-3.6,0-6.4,2.5-6.4,5.6v33.6c0,3.1,2.9,5.6,6.4,5.6v3.3l-23.9,20.8c-1.2,1-1.9,2.5-1.9,4V140
	c0,2.3,0.6,4.5,1.6,6.6l-69.1,60c-0.8,0.7-1.4,1.6-1.7,2.6l-8.7,30.1l-3.3,2.9l-4.6-4c-2.5-2.2-6.6-2.2-9.1,0L1.9,262
	c-2.5,2.2-2.5,5.7,0,7.9l72.9,63.3c2.5,2.2,6.6,2.2,9.1,0l27.3-23.8c2.5-2.2,2.5-5.7,0-7.9l2.7-2.3h33.8c1.7,0,3.3-0.6,4.6-1.6
	l42.6-37l42.6,37c1.2,1,2.8,1.6,4.6,1.6h33.8l2.7,2.3l0,0c-2.5,2.2-2.5,5.7,0,7.9l27.3,23.7c2.5,2.2,6.6,2.2,9.1,0l72.9-63.3
	C390.4,267.7,390.5,264.2,387.9,262z M156.2,11.2h90.3v22.4h-90.3V11.2z M160.8,54.3c1.2-1,1.9-2.5,1.9-4v-5.6h70.9v5.6
	c0,1,0.3,2,0.9,2.9L253,79.9v59.5c-4.2-1.2-8.7-1.2-12.9,0.1v-10.7h-12.9v17.4l-3.3-2.9c-2.6-2.3-6-3.9-9.6-4.6v-9.9h-12.9v11.4
	c-3.8,1.6-6.9,4.4-8.6,7.8l-0.8-0.7c-1-0.9-2.2-1.7-3.5-2.3v-16.1h-12.9v13.7c-4.2,0.5-8,2.1-11,4.7c-1.1,1-2.1,2.1-2.9,3.3
	c-0.3-1-0.8-1.9-1.3-2.8c1.5-2.4,2.2-5,2.3-7.7v-33.6h-12.9v33c-4.2-1.3-8.7-1.3-12.9,0V75.1L160.8,54.3z M79.4,321.4L15.6,266
	l18.2-15.8l63.8,55.4L79.4,321.4z M145.1,288.1h-33.8c-1.7,0-3.3,0.6-4.6,1.6l-4.5,3.9L52,250.1l4.6-4c0.8-0.7,1.4-1.6,1.7-2.6
	l8.7-30.1l71.6-62.2c2.5-2.2,6.5-2.2,9.1-0.1c0.1,0.1,0.2,0.2,0.3,0.3c2.3,2.2,2.2,5.6-0.2,7.7l0,0l-31.9,27.7l9.1,7.9l31.9-27.7
	l0,0c1.1-1,2.1-2.1,2.9-3.3c0.9,2.7,2.5,5.3,4.8,7.3l0.8,0.7c-2,0.8-3.8,1.9-5.4,3.3c-3.1,2.7-5,6.2-5.5,9.9l-2.8,2.4L134,202.6
	l9.1,7.9l15.4-13.3c0.4,0.5,0.9,1,1.4,1.5l7.6,6.6l-15.2,13.2l9.1,7.9l15.3-13.3l0.9,0.7c0.2,0.2,0.3,0.3,0.5,0.5l7.7,6.7l-33.5,29
	l9.1,7.9l16.8-14.6c0.9,2.5,2.5,4.8,4.6,6.7l3,2.6L145.1,288.1z M244.7,288.1l-52.8-45.9c-2.5-2.2-2.5-5.7,0-7.9c0,0,0,0,0,0
	c0.8-0.7,1.8-1.2,3-1.4c0.5,0,1.1-0.1,1.6-0.2c1.6,0,3.2,0.5,4.4,1.5l0,0l0,0l27.5,23.8l9.1-7.9L169,190.7c-1.1-1-1.8-2.3-1.8-3.7
	c-0.2-3.1,2.6-5.7,6.2-5.8c0,0,0,0,0,0c0.2,0,0.5,0,0.7,0.1c1.5,0.1,3,0.7,4.1,1.6l50.2,43.6l9.1-7.9L173.7,163
	c-2.5-2.2-2.5-5.7,0-7.9c0,0,0,0,0,0c1.2-1.1,2.9-1.6,4.6-1.6c0.7,0,1.3,0.1,1.9,0.3c1,0.2,1.9,0.7,2.6,1.3l63.8,55.4l9.1-7.9
	L205.6,159c-1.1-1-1.8-2.3-1.8-3.7c-0.1-1.5,0.6-3,1.9-4.1c1-0.9,2.4-1.4,3.8-1.6c0.2,0,0.5-0.1,0.7-0.1c1.7,0,3.4,0.6,4.6,1.7
	l50.2,43.6l9.1-7.9l-31.9-27.7c-2.5-2.2-2.5-5.7,0-7.9c0,0,0,0,0,0c2.6-2.1,6.6-2.1,9.1,0l71.7,62.2l8.7,30.1c0.3,1,0.9,1.9,1.7,2.6
	l4.6,4l-50.2,43.6l-4.5-3.9c-1.2-1-2.8-1.6-4.6-1.6L244.7,288.1z M310.5,321.4l-18.3-15.8l63.8-55.4l18.2,15.9L310.5,321.4z"/>
</svg>
