<?xml version="1.0" encoding="utf-8"?>
<!-- Generator: Adobe Illustrator 19.0.0, SVG Export Plug-In . SVG Version: 6.00 Build 0)  -->
<svg version="1.1" id="lapiz_x5F_capa" xmlns="http://www.w3.org/2000/svg" xmlns:xlink="http://www.w3.org/1999/xlink" x="0px"
	 y="0px" viewBox="0 0 428.4 395.1" style="enable-background:new 0 0 428.4 395.1;" xml:space="preserve">
<style type="text/css">
	.st0{fill:#003D39;stroke:#003D39;stroke-width:15.5252;stroke-linecap:square;stroke-linejoin:bevel;stroke-miterlimit:10;}
	.st1{fill:#003D39;stroke:#003D39;stroke-width:15.5252;stroke-miterlimit:10;}
</style>
<g id="lapiz">
	<g id="XMLID_255_">
		<path id="XMLID_256_" class="st0" d="M27.6,354.3c-0.9-2.6-3.4,1.3-3.9,2.1c-2.1,3.3-4,6.7-6,10.1c-1.9,3.3-3.9,6.6-5.8,9.9
			c-1.7,3-3.5,6-4.2,9.6c-0.2,0.9,0.8,1.5,1.5,1.2c5.7-2.7,11.4-5.3,17-8c2.8-1.3,5.7-2.7,8.5-4c2.8-1.3,5.8-2.5,8.5-4.1
			c1-0.6,0.4-2.2-0.7-1.8c-2.9,1-5.8,2.5-8.6,3.8c-2.8,1.3-5.7,2.7-8.5,4c-5.7,2.7-11.4,5.3-17.1,8c0.5,0.4,1,0.8,1.5,1.2
			c0.6-3,2.1-5.6,3.6-8.1c1.6-2.7,3.2-5.5,4.7-8.3c1.5-2.7,3-5.3,4.5-8c0.8-1.3,1.5-2.7,2.2-4c0.3-0.6,1.4-3.4,2.3-3.2
			C27.5,354.7,27.7,354.5,27.6,354.3L27.6,354.3z"/>
	</g>
	<g id="XMLID_253_">
		<path id="XMLID_254_" class="st1" d="M325.1,42c3-2,4-5.7,6.8-8c2.9-2.4,5.9-4.9,8.8-7.3c5.9-4.9,11.7-9.8,17.6-14.7
			c1-0.8-0.2-2.4-1.2-1.6c-5.8,4.9-11.5,9.7-17.3,14.6c-2.8,2.4-5.6,4.8-8.5,7.3c-2.9,2.5-9.9,9.7-12.5,12.5c-0.3,0.4,1.7,1.9,4.4-4
			L325.1,42z"/>
	</g>
	<g id="XMLID_225_">
		<g id="XMLID_251_">
			<path id="XMLID_252_" class="st1" d="M24.1,357.8c3.7-7,48.6-90.4,52.3-97.4c0.5-0.9-0.7-1.9-1.2-1l0,0
				c-13.5,24.2-39.3,72.8-52.5,97.2"/>
		</g>
		<g id="XMLID_246_">
			<line id="XMLID_250_" class="st1" x1="42.9" y1="370.5" x2="42.9" y2="370.5"/>
			<path id="XMLID_249_" class="st1" d="M40.2,374.2c1.7-0.8,7.2-3.9,8.9-4.7c3.2-1.5,6.4-2.9,9.6-4.4c6.3-2.9,12.6-5.8,18.9-8.6
				c12.7-5.7,25.5-11.4,38.3-16.9c3.5-1.5,7-3,10.5-4.5c3.7-1.6,7.5-2.9,11-4.9c0.9-0.5,0.6-2.3-0.5-2c-3.2,0.9-6.3,2.4-9.4,3.7
				c-3.2,1.4-6.5,2.8-9.7,4.1c-6.4,2.8-12.9,5.6-19.3,8.4c-12.7,5.7-25.5,11.4-38.1,17.4c-3.6,1.7-7.1,3.4-10.6,5.1
				c-1.8,0.9-9.4,4.9-11.2,5.8"/>
		</g>
		<g id="XMLID_242_">
			<path id="XMLID_245_" class="st1" d="M86.4,333.7"/>
			<path id="XMLID_244_" class="st1" d="M119.1,306.6"/>
			<path id="XMLID_243_" class="st1" d="M106.2,321.7"/>
		</g>
		<g id="XMLID_240_">
			<path id="XMLID_241_" class="st1" d="M283.4,76.8c5.5-4.5,10.9-9.1,16.4-13.6c5.6-4.5,11-9.6,17-13.4c-0.4-0.7-0.7-1.3-1.1-2
				c-2.1,1.4-4,3.3-5.9,5c-2.1,1.8-4.2,3.7-6.4,5.5c-3.9,3.4-7.8,6.8-11.7,10.2c-8,6.9-15.9,13.9-23.9,20.8
				c-15.8,13.7-31.5,27.5-47.3,41.2c-31.7,27.6-63.5,55.1-95.1,82.8c-17.7,15.5-35.5,30.8-52.9,46.6c-1.1,1,0.2,2.9,1.4,1.9
				c16.2-13.5,32-27.5,48-41.4c15.8-13.7,31.5-27.5,47.2-41.3c31.6-27.7,63.3-55.4,95-83c8.8-7.7,17.5-15.3,26.3-23
				c4.4-3.8,8.8-7.7,13.1-11.5c2.3-2,4.5-4,6.8-6c2.2-2,4.8-3.8,6.8-6c1-1.1-0.4-2.9-1.3-1.8c-4.9,5.3-10.7,9.8-16.1,14.6
				c-5.4,4.8-10.9,9.4-16.4,14.2C283.2,76.7,283.3,76.9,283.4,76.8L283.4,76.8z"/>
		</g>
		<g id="XMLID_238_">
			<path id="XMLID_257_" class="st1" d="M136.8,330.5c15.4-13.9,29.6-24,45.2-37.6c15.4-13.4,30.9-26.9,46.3-40.3
				c31-27,62-54.1,93.1-81.1c17.4-15.2,34.8-30.3,52.1-45.5c1.3-1.1-0.3-3.2-1.6-2.1c-31,27-62,54.1-93,81.2
				c-31,27.1-62,54.1-92.9,81.3c-17.3,15.2-34.5,30.7-52.1,45.5"/>
		</g>
		<g id="XMLID_236_">
			<path id="XMLID_237_" class="st1" d="M314.6,47.3c3.4,0.1,6.7,0.1,10.1,0.7c3.4,0.6,6.8,1.9,9.9,3.4c6.3,3.1,11.9,7.6,16.8,12.6
				c9.8,9.9,17.8,22.2,22.2,35.9c2.4,7.5,4.2,16.6-0.4,23.7c-0.9,1.3,0.8,2.6,1.8,1.4c4.8-5.8,4.2-14.4,2.4-21.3
				c-1.9-7.4-4.9-14.5-8.6-21c-7.5-13.2-18.2-25.4-31.1-32.3c-6.7-3.6-15.7-6.5-23.2-3.6C314.3,47,314.4,47.3,314.6,47.3L314.6,47.3
				z"/>
		</g>
		<g id="XMLID_234_">
			<path id="XMLID_235_" class="st1" d="M379.6,117.7c1.5-2.9,4.7-4.6,7.1-6.6c2.6-2.2,5.2-4.5,7.7-7c2.4-2.4,4.8-4.8,7.1-7.3
				c1.1-1.2,2.2-2.4,3.3-3.7c1.1-1.3,2.4-2.6,3.2-4.1c0.4-0.9-0.7-1.5-1.3-1c-1.3,1.1-2.3,2.6-3.4,3.9c-1.2,1.4-2.4,2.8-3.6,4.2
				c-2.5,2.7-5,5.4-7.7,8c-2.6,2.5-5.2,4.9-7.9,7.2c-1.2,1-2.5,2-3.6,3.2c-0.9,1-1.3,1.7-1.2,3.1
				C379.1,117.8,379.5,117.9,379.6,117.7L379.6,117.7z"/>
		</g>
		<g id="XMLID_232_">
			<path id="XMLID_233_" class="st1" d="M356.5,12.3c15.4-7.4,33.8,0,45.7,11.1c11.6,10.9,18.3,27.3,15.2,44.1
				c-1.7,9.4-6.3,17.4-13,23.6c-1.1,1.1,0.2,2.8,1.4,1.9c6.6-4.9,11-13.1,13.2-21.3c2.2-8.4,2.2-17.4-0.2-25.7
				c-4.8-17.1-18.6-30.7-34.2-36c-9.3-3.2-19.4-3.5-28.3,1.8C356.1,12,356.2,12.5,356.5,12.3L356.5,12.3z"/>
		</g>
		<g id="XMLID_230_">
			<path id="XMLID_231_" class="st1" d="M125,305.9c8.7-6.6,16.8-14.2,25.1-21.5c8.1-7.1,15.9-14.6,24-21.7
				c16.4-14.2,33-28.1,49.3-42.3c32.7-28.5,65.2-57.1,97.8-85.7c9.1-8,18.1-16.2,27.2-24.3c9.2-8.2,12.5-11.4,21.4-20
				c0.1-0.1,0.1-0.1,0,0c-8.6,6.8-10.9,9.4-19.3,16.6c-8.2,7-16.5,13.9-24.6,20.9c-16.3,14.2-32.7,28.5-49,42.7
				c-16.3,14.2-32.7,28.5-49,42.8c-16.3,14.3-32.4,28.9-48.6,43.2c-9.1,8.1-18.5,15.7-27.7,23.6c-4.5,3.9-9,7.9-13.6,11.9
				c-4.7,4.1-9.5,8.2-13.9,12.7C123.8,305.5,124.4,306.3,125,305.9L125,305.9z"/>
		</g>
		<g id="XMLID_228_">
			<path id="XMLID_229_" class="st1" d="M97,274.2c-2.1,1.2-4,2.6-5.9,4.2c0.4,0.5,0.7,1,1.1,1.5c16.6-14.1,33.3-28.1,49.9-42.1
				c16.7-14.1,33.5-28.2,50.2-42.3c16.6-14.1,33.2-28.2,49.8-42.3c16.7-14.2,33.4-28.3,50-42.5c16.6-14.1,33.1-28.3,49.7-42.5
				c2.1-1.8,4.2-3.6,6.3-5.4c0.9-0.8-0.2-2.3-1.1-1.5c-16.7,14-33.3,28-50,42.1c-16.7,14.1-33.4,28.3-50.1,42.4
				c-16.6,14.1-33.2,28.2-49.8,42.3c-16.7,14.2-33.3,28.4-50,42.6c-16.6,14.1-33.1,28.3-49.7,42.4c-2.1,1.8-4.2,3.6-6.4,5.4
				c-0.9,0.8,0.2,2.3,1.1,1.5c1.9-1.6,3.6-3.2,5.2-5.1C97.6,274.5,97.3,274.1,97,274.2L97,274.2z"/>
		</g>
		<line id="XMLID_227_" class="st1" x1="72.5" y1="260.1" x2="136.8" y2="330.5"/>
		<line id="XMLID_226_" class="st1" x1="34.1" y1="343.1" x2="52.4" y2="365.6"/>
	</g>
</g>
</svg>
