<?xml version="1.0" encoding="utf-8"?>
<!-- Generator: Adobe Illustrator 19.0.0, SVG Export Plug-In . SVG Version: 6.00 Build 0)  -->
<svg version="1.1" id="Capa_1" xmlns="http://www.w3.org/2000/svg" xmlns:xlink="http://www.w3.org/1999/xlink" x="0px" y="0px"
	 viewBox="0 0 173 138.4" style="enable-background:new 0 0 173 138.4;" xml:space="preserve">
<style type="text/css">
	.st0{fill:#1E120D;}
	.st1{fill:#F9E6E6;stroke:#1E120D;stroke-width:1.4295;stroke-miterlimit:10;}
</style>
<circle id="XMLID_502_" class="st0" cx="69.2" cy="69.2" r="69.2"/>
<path id="XMLID_498_" class="st1" d="M152.5,24.2H54.7c-10.9,0-19.8,8-19.8,17.8v61.2c0,9.8,8.9,17.8,19.8,17.8h97.8
	c10.9,0,19.8-8,19.8-17.8V42C172.3,32.2,163.4,24.2,152.5,24.2z M152.5,32.7c0.8,0,1.6,0.1,2.4,0.3l-41.2,41.9c-2.5,2.6-6.2,4-10,4
	c-3.8,0-7.5-1.5-10-4L52.4,33c0.8-0.2,1.5-0.3,2.4-0.3H152.5z M162.8,103.2c0,5.1-4.6,9.3-10.4,9.3H54.7c-5.7,0-10.4-4.2-10.4-9.3
	V42c0-1.2,0.3-2.4,0.8-3.5l41.4,42c4.3,4.4,10.6,6.9,17.1,6.9c6.5,0,12.8-2.5,17.1-6.9l41.3-42c0.5,1.1,0.8,2.3,0.8,3.5V103.2z"/>
</svg>
