<?xml version="1.0" encoding="utf-8"?>
<!-- Generator: Adobe Illustrator 19.0.0, SVG Export Plug-In . SVG Version: 6.00 Build 0)  -->
<svg version="1.1" id="tiktok" xmlns="http://www.w3.org/2000/svg" xmlns:xlink="http://www.w3.org/1999/xlink" x="0px" y="0px"
	 viewBox="0 0 1182.1 1184.6" style="enable-background:new 0 0 1182.1 1184.6;" xml:space="preserve">
<style type="text/css">
	.st0{fill:#1E120D;}
	.st1{fill:#F9E6E8;stroke:#1E120D;stroke-width:15;stroke-miterlimit:10;}
</style>
<circle id="fondo" class="st0" cx="524.7" cy="524.7" r="524.7"/>
<path id="t" class="st1" d="M1174.5,605c-7.8,0.8-15.7,1.2-23.6,1.2c-86.5,0-167.2-43.6-214.6-116v394.9
	c0,161.2-130.7,291.9-291.9,291.9c-161.2,0-291.9-130.7-291.9-291.9s130.7-291.9,291.9-291.9l0,0c6.1,0,12.1,0.6,18,0.9V738
	c-6-0.7-11.9-1.8-18-1.8c-82.3,0-149,66.7-149,149c0,82.3,66.7,149,149,149c82.3,0,155-64.8,155-147.1l1.4-670.7h137.6
	c13,123.4,112.5,219.8,236.2,228.8V605"/>
</svg>
