<?xml version="1.0" encoding="utf-8"?>
<!-- Generator: Adobe Illustrator 19.0.0, SVG Export Plug-In . SVG Version: 6.00 Build 0)  -->
<svg version="1.1" id="enterate" xmlns="http://www.w3.org/2000/svg" xmlns:xlink="http://www.w3.org/1999/xlink" x="0px" y="0px"
	 viewBox="0 0 2020 523.2" style="enable-background:new 0 0 2020 523.2;" xml:space="preserve">
<style type="text/css">
	.st0{fill:none;stroke:#FBE8E9;stroke-width:20;stroke-linecap:round;stroke-linejoin:round;stroke-miterlimit:10;}
</style>
<g id="enterate_x5F_grupo">
	<path id="bottom" class="st0" d="M10,440.6c0,0,141.4,109.6,300.8,26.8c26.1-13.6,57.1-14.5,83.5-1.5c49,24.1,138.8,50.1,250.6,0.2
		c28.6-12.8,61.8-10.7,88,6.5c49.6,32.6,140,69.9,241.1,4.4c28.2-18.3,64.1-19.1,93.7-3.3c51,27.3,138.5,53,242.7-4.2
		c27.5-15.1,60.6-15.9,88.3-1.2"/>
	<path id="middle" class="st0" d="M10,232.4c0,0,141.4,109.6,300.8,26.8c26.1-13.6,57.1-14.5,83.5-1.5c49,24.1,138.8,50.1,250.6,0.2
		c28.6-12.8,61.8-10.7,88,6.5c49.6,32.6,140,69.9,241.1,4.4c28.2-18.3,64.1-19.1,93.7-3.3c51,27.3,138.5,53,242.7-4.2
		c27.5-15.1,60.6-15.9,88.3-1.2c52.7,28.1,145.5,60.2,235,6.3"/>
	<path id="top" class="st0" d="M32.4,10c0,0,141.4,109.6,300.8,26.8c26.1-13.6,57.1-14.5,83.5-1.5c49,24.1,138.8,50.1,250.6,0.2
		c28.6-12.8,61.8-10.7,88,6.5c49.6,32.6,140,69.9,241.1,4.4c28.2-18.3,64.1-19.1,93.7-3.3c51,27.3,138.5,53,242.7-4.2
		c27.5-15.1,60.6-15.9,88.3-1.2c52.7,28.1,145.5,60.2,235,6.3c28.6-17.2,64.5-17.1,93.4-0.3c67.4,39.4,188.1,85,260.5-33.8"/>
</g>
</svg>
