<?xml version="1.0" encoding="utf-8"?>
<!-- Generator: Adobe Illustrator 19.0.0, SVG Export Plug-In . SVG Version: 6.00 Build 0)  -->
<svg version="1.1" id="Capa_1" xmlns="http://www.w3.org/2000/svg" xmlns:xlink="http://www.w3.org/1999/xlink" x="0px" y="0px"
	 viewBox="0 0 1767.5 1584.3" style="enable-background:new 0 0 1767.5 1584.3;" xml:space="preserve">
<style type="text/css">
	.st0{fill:#1E120D;}
	.st1{fill:#F9E6E8;stroke:#1E120D;stroke-width:15;stroke-miterlimit:10;}
	.st2{fill-rule:evenodd;clip-rule:evenodd;fill:#F9E6E8;stroke:#1E120D;stroke-width:15;stroke-miterlimit:10;}
</style>
<circle id="XMLID_521_" class="st0" cx="712.4" cy="712.4" r="712.4"/>
<g id="XMLID_516_">
	<path id="XMLID_518_" class="st1" d="M307.5,1573.7l104.4-389.5c-59.1-106.6-90.2-226.1-90.2-347.4
		c0-396.5,322.6-719.2,719.2-719.2c396.5,0,719.2,322.6,719.2,719.2c0,396.5-322.6,719.2-719.2,719.2c-119,0-236.6-30.1-341.8-87.1
		L307.5,1573.7z M718.5,1322.9l24.7,14.7c90.5,53.9,193.5,82.5,297.7,82.5c321.6,0,583.2-261.6,583.2-583.2
		c0-321.6-261.6-583.2-583.2-583.2c-321.6,0-583.2,261.6-583.2,583.2c0,106.2,29.5,210.7,85.3,302.4l15.1,24.8l-58.3,217.5
		L718.5,1322.9z"/>
	<path id="XMLID_517_" class="st2" d="M1308.4,936.8c-29.6-17.7-68.1-37.5-103-23.2c-26.8,10.9-43.8,52.8-61.2,74.2
		c-8.9,11-19.5,12.7-33.2,7.2c-100.4-40-177.4-107-232.8-199.4c-9.4-14.4-7.7-25.7,3.6-39c16.8-19.7,37.8-42.1,42.3-68.7
		c4.5-26.5-7.9-57.6-18.9-81.3c-14-30.2-29.7-73.3-60-90.4c-27.8-15.7-64.5-6.9-89.3,13.3c-42.8,34.8-63.4,89.5-62.8,143.6
		c0.2,15.4,2.1,30.7,5.7,45.6c8.6,35.7,25.1,69,43.7,100.7c14,23.9,29.2,47.1,45.6,69.4c53.7,73,120.5,136.4,197.9,183.8
		c38.7,23.7,80.3,44.4,123.4,58.7c48.4,16,91.4,32.6,143.7,22.7c54.7-10.4,108.6-44.2,130.3-96.9c6.4-15.6,9.6-33,6-49.4
		C1382.1,973.6,1335.9,953.3,1308.4,936.8z"/>
</g>
</svg>
